<svg width="559" height="392" viewBox="0 0 559 392" fill="none" xmlns="http://www.w3.org/2000/svg">
<path d="M0 5C0 2.23857 2.23858 0 5 0H554C556.761 0 559 2.23858 559 5V387C559 389.761 556.761 392 554 392H5.00002C2.23859 392 0 389.761 0 387V5Z" fill="#151A24"/>
<path d="M286.337 220.222C289.587 220.222 292.337 217.597 292.337 214.222V178.222C292.337 174.972 289.587 172.222 286.337 172.222H234.337C230.962 172.222 228.337 174.972 228.337 178.222V214.222C228.337 217.597 230.962 220.222 234.337 220.222H286.337ZM242.337 179.222C246.087 179.222 249.337 182.472 249.337 186.222C249.337 190.097 246.087 193.222 242.337 193.222C238.462 193.222 235.337 190.097 235.337 186.222C235.337 182.472 238.462 179.222 242.337 179.222ZM236.337 212.222V206.222L245.212 197.347C245.837 196.722 246.712 196.722 247.337 197.347L254.337 204.222L271.212 187.347C271.837 186.722 272.712 186.722 273.337 187.347L284.337 198.222V212.222H236.337Z" fill="url(#paint0_linear_320_169)"/>
<defs>
<linearGradient id="paint0_linear_320_169" x1="228" y1="196" x2="331" y2="196" gradientUnits="userSpaceOnUse">
<stop stop-color="#ED2172"/>
<stop offset="1" stop-color="#F0604A"/>
</linearGradient>
</defs>
</svg>
